<svg width="1200" height="1200" viewBox="0 0 1200 1200" fill="none" xmlns="http://www.w3.org/2000/svg">
<path d="M504.673 209.346C509.834 209.346 514.019 213.53 514.019 218.692V448.043C362.553 486.356 250.467 623.544 250.467 786.916C250.467 979.957 406.958 1136.45 600 1136.45C793.042 1136.45 949.533 979.957 949.533 786.916C949.533 623.544 837.447 486.356 685.981 448.043V218.692C685.981 213.53 690.166 209.346 695.327 209.346H779.439C784.601 209.346 788.785 213.53 788.785 218.692V261.682C788.785 266.844 784.601 271.028 779.439 271.028H758.879C757.027 271.028 753.555 272.075 750.507 274.208C747.455 276.345 745.794 278.866 745.794 281.308V402.298C900.936 461.138 1011.21 611.147 1011.21 786.916C1011.21 1014.02 827.108 1198.13 600 1198.13C372.892 1198.13 188.785 1014.02 188.785 786.916C188.785 611.147 299.064 461.138 454.206 402.298V281.308C454.206 278.866 452.545 276.345 449.493 274.208C446.445 272.075 442.973 271.028 441.121 271.028H420.561C415.399 271.028 411.215 266.844 411.215 261.682V218.692C411.215 213.53 415.399 209.346 420.561 209.346H504.673Z" fill="url(#paint0_linear_6_97)"/>
<path d="M600 495.327C761.04 495.327 891.589 625.876 891.589 786.916C891.589 947.956 761.04 1078.5 600 1078.5C438.96 1078.5 308.411 947.956 308.411 786.916C308.411 625.876 438.96 495.327 600 495.327ZM467.043 824.608C464.84 858.471 469.545 896.703 493.458 931.776C517.196 966.592 548.207 985.973 583.419 1003.29L584.443 946.18L467.043 824.608ZM615.556 946.185L616.58 1003.29C651.792 985.973 682.803 966.593 706.542 931.776C730.454 896.705 735.159 858.475 732.957 824.613L615.556 946.185ZM614.265 848.458L613.794 848.003L615.081 919.767L730.255 800.502C729.318 794.478 728.24 788.685 727.103 783.178C725.486 775.349 721.418 761.911 714.566 744.591L614.265 848.458ZM485.434 744.586C478.581 761.908 474.514 775.348 472.897 783.178C471.76 788.684 470.68 794.475 469.743 800.497L584.917 919.761L586.204 848.009L585.74 848.458L485.434 744.586ZM611.931 744.009L613.338 822.507L706.686 725.843C699.719 710.156 690.919 692.385 680.118 673.397L611.931 744.009ZM519.882 673.394C509.081 692.381 500.281 710.152 493.314 725.84L586.66 822.501L588.068 744.004L519.882 673.394ZM611.458 717.591L670.271 656.688C653.82 629.727 633.493 600.946 608.857 572.592L611.458 717.591ZM591.142 572.592C566.506 600.945 546.182 629.726 529.731 656.686L588.542 717.585L591.142 572.592Z" fill="url(#paint1_linear_6_97)"/>
<path d="M575.701 181.308C587.056 181.308 596.262 190.514 596.262 201.869C596.262 213.225 587.056 222.43 575.701 222.43C564.345 222.43 555.14 213.225 555.14 201.869C555.14 190.514 564.345 181.308 575.701 181.308ZM663.551 85.9813C688.327 85.9813 708.411 106.066 708.411 130.841C708.411 155.617 688.327 175.701 663.551 175.701C638.776 175.701 618.692 155.617 618.692 130.841C618.692 106.066 638.776 85.9813 663.551 85.9813ZM586.916 0C604.465 0 618.692 14.2265 618.692 31.7757C618.692 49.3249 604.465 63.5514 586.916 63.5514C569.367 63.5514 555.14 49.3249 555.14 31.7757C555.14 14.2265 569.367 0 586.916 0Z" fill="url(#paint2_linear_6_97)"/>
<defs>
<linearGradient id="paint0_linear_6_97" x1="600" y1="209.346" x2="600" y2="1198.13" gradientUnits="userSpaceOnUse">
<stop stop-color="#018DDA"/>
<stop offset="1" stop-color="#0058C6"/>
</linearGradient>
<linearGradient id="paint1_linear_6_97" x1="600" y1="495.327" x2="600" y2="1078.5" gradientUnits="userSpaceOnUse">
<stop stop-color="#A9F56D"/>
<stop offset="1" stop-color="#59E76C"/>
</linearGradient>
<linearGradient id="paint2_linear_6_97" x1="631.776" y1="0" x2="631.776" y2="222.43" gradientUnits="userSpaceOnUse">
<stop stop-color="#A3F26A"/>
<stop offset="1" stop-color="#94F268"/>
</linearGradient>
</defs>
</svg>
