<svg width="1200" height="1200" viewBox="0 0 1200 1200" fill="none" xmlns="http://www.w3.org/2000/svg">
<path d="M504.673 209.78C509.835 209.78 514.019 213.965 514.019 219.126V448.478C362.553 486.79 250.467 623.978 250.467 787.35C250.467 980.392 406.959 1136.88 600 1136.88C793.042 1136.88 949.533 980.392 949.533 787.35C949.533 623.978 837.447 486.79 685.981 448.478V219.126C685.981 213.965 690.166 209.78 695.327 209.78H779.439C784.601 209.78 788.785 213.965 788.785 219.126V262.117C788.785 267.278 784.601 271.463 779.439 271.463H758.879C757.027 271.463 753.555 272.509 750.508 274.642C747.455 276.779 745.795 279.3 745.795 281.743V402.733C900.936 461.573 1011.22 611.582 1011.22 787.35C1011.22 1014.46 827.108 1198.57 600 1198.57C372.892 1198.57 188.785 1014.46 188.785 787.35C188.785 611.582 299.064 461.573 454.206 402.733V281.743C454.206 279.3 452.545 276.779 449.493 274.642C446.446 272.509 442.973 271.463 441.122 271.463H420.561C415.399 271.463 411.215 267.278 411.215 262.117V219.126C411.215 213.965 415.399 209.78 420.561 209.78H504.673ZM601.869 495.762C762.909 495.762 893.458 626.31 893.458 787.35C893.458 948.39 762.909 1078.94 601.869 1078.94C440.829 1078.94 310.28 948.39 310.28 787.35C310.28 626.31 440.829 495.762 601.869 495.762ZM467.043 825.042C464.84 858.905 469.545 897.138 493.458 932.21C517.197 967.027 548.207 986.408 583.419 1003.73L584.443 946.614L467.043 825.042ZM615.556 946.62L616.58 1003.73C651.793 986.408 682.803 967.027 706.542 932.21C730.455 897.139 735.16 858.908 732.957 825.046L615.556 946.62ZM614.265 848.892L613.794 848.438L615.081 920.201L730.255 800.937C729.318 794.913 728.24 789.12 727.103 783.612C725.486 775.784 721.418 762.346 714.566 745.026L614.265 848.892ZM485.434 745.021C478.581 762.343 474.514 775.783 472.897 783.612C471.76 789.118 470.68 794.909 469.743 800.931L584.917 920.196L586.204 848.443L585.74 848.892L485.434 745.021ZM611.931 744.444L613.338 822.941L706.686 726.278C699.719 710.59 690.919 692.819 680.118 673.832L611.931 744.444ZM519.882 673.828C509.081 692.815 500.281 710.587 493.314 726.274L586.66 822.936L588.068 744.438L519.882 673.828ZM611.458 718.025L670.271 657.123C653.82 630.162 633.493 601.381 608.857 573.027L611.458 718.025ZM591.142 573.027C566.506 601.38 546.182 630.161 529.731 657.121L588.542 718.02L591.142 573.027ZM575.701 181.743C587.056 181.743 596.262 190.948 596.262 202.304C596.262 213.659 587.056 222.864 575.701 222.864C564.346 222.864 555.14 213.659 555.14 202.304C555.14 190.948 564.346 181.743 575.701 181.743ZM663.552 86.4159C688.327 86.4159 708.411 106.5 708.411 131.276C708.411 156.051 688.327 176.136 663.552 176.136C638.776 176.136 618.692 156.051 618.692 131.276C618.692 106.5 638.776 86.4159 663.552 86.4159ZM586.916 0.434586C604.465 0.434586 618.692 14.6611 618.692 32.2103C618.692 49.7595 604.465 63.986 586.916 63.986C569.367 63.986 555.14 49.7595 555.14 32.2103C555.14 14.6611 569.367 0.434586 586.916 0.434586Z" fill="black"/>
</svg>
